# File created by Blade
# Date/Time:  Tue Jan 27 19:00:36 2015
# Frame Rate: 120.000 fps
#------------------------------------------------------
:FULLY-SPECIFIED
:DEGREES
2265
root -1.781873 31.673401 -6.105853 5.621375 -18.135944 -7.229205
Spine 4.255262 -8.818194 -1.553866
Head 18.716329 -20.398814 5.705955
LeftShoulder -17.483547 17.420321 13.239475
LeftArm 8.723651 -28.604573 -77.904290
LeftForeArm 1.999429 -0.000000 103.978692
LeftHand -15.085747 -0.000000 25.178671
LeftHandThumb1 -26.253704 0.000000 33.147579
RightShoulder -12.808463 -4.584718 -7.999429
RightArm 6.785263 -30.287998 77.742749
RightForeArm -22.699345 -0.000000 19.365676
RightHand -12.954900 -0.000000 14.105785
RightHandThumb1 -24.326973 -0.000000 -32.862282
LeftUpLeg -11.126474 13.071335 -4.620433
LeftLeg 19.214410 -0.000000 -0.000000
LeftFoot -32.061669 32.088323 -20.758114
LeftToeBase 10.347226 -0.000000 -0.000000
RightUpLeg -46.062263 -31.717877 7.720437
RightLeg 79.139302 -0.000000 -0.000000
RightFoot -22.172173 -12.938250 30.121487
RightToeBase 4.511218 -0.000000 -0.000000
2266
root -1.752339 31.671095 -6.092910 5.655455 -18.431219 -7.260067
Spine 4.305220 -8.557838 -1.452540
Head 18.612091 -20.722662 5.597876
LeftShoulder -17.526740 17.589481 13.266564
LeftArm 8.740644 -28.541375 -78.100167
LeftForeArm 1.883618 0.000000 104.023084
LeftHand -15.053068 -0.000000 25.000942
LeftHandThumb1 -26.253704 0.000000 33.147579
RightShoulder -12.675471 -4.541898 -7.993252
RightArm 7.191529 -30.152940 77.178089
RightForeArm -22.616351 -0.000000 18.870817
RightHand -12.997584 -0.000000 14.317816
RightHandThumb1 -24.326973 -0.000000 -32.862282
LeftUpLeg -11.098129 13.276119 -4.671734
LeftLeg 19.150404 -0.000000 -0.000000
LeftFoot -32.144979 32.117087 -20.828938
LeftToeBase 10.443822 -0.000000 -0.000000
RightUpLeg -46.505342 -32.493904 8.120976
RightLeg 79.289708 -0.000000 -0.000000
RightFoot -22.055077 -12.997151 30.021370
RightToeBase 4.638394 -0.000000 -0.000000
2267
root -1.720944 31.669483 -6.078614 5.682668 -18.754282 -7.275222
Spine 4.357815 -8.273682 -1.375654
Head 18.542006 -21.053649 5.478037
LeftShoulder -17.535425 17.637520 13.336518
LeftArm 8.567389 -28.507608 -78.194816
LeftForeArm 1.769647 -0.000000 104.079395
LeftHand -15.014991 0.000000 24.806049
LeftHandThumb1 -26.253704 0.000000 33.147579
RightShoulder -12.552030 -4.428993 -7.995310
RightArm 7.556793 -30.023235 76.619730
RightForeArm -22.424259 -0.000000 18.375641
RightHand -13.093650 0.000000 14.569152
RightHandThumb1 -24.326973 -0.000000 -32.862282
LeftUpLeg -11.068529 13.470950 -4.743053
LeftLeg 19.089763 -0.000000 -0.000000
LeftFoot -32.212233 32.192456 -20.898701
LeftToeBase 10.472941 -0.000000 -0.000000
RightUpLeg -46.942639 -33.234965 8.482479
RightLeg 79.392596 -0.000000 -0.000000
RightFoot -22.111290 -12.887961 30.274360
RightToeBase 4.572185 -0.000000 -0.000000
2268
root -1.690851 31.667440 -6.060468 5.678109 -19.139584 -7.303834
Spine 4.433873 -7.958179 -1.294010
Head 18.504804 -21.254588 5.410680
LeftShoulder -17.608843 17.738465 13.346207
LeftArm 8.492981 -28.509568 -78.301011
LeftForeArm 1.653864 0.000000 104.116427
LeftHand -15.035529 -0.000000 24.625665
LeftHandThumb1 -26.253704 0.000000 33.147579
RightShoulder -12.387462 -4.249416 -8.057313
RightArm 7.849781 -29.759493 76.170557
RightForeArm -22.340016 -0.000000 17.836343
RightHand -13.131470 -0.000000 14.582229
RightHandThumb1 -24.326973 -0.000000 -32.862282
LeftUpLeg -11.017498 13.788612 -4.802963
LeftLeg 19.066861 -0.000000 -0.000000
LeftFoot -32.232765 32.241960 -20.866778
LeftToeBase 10.398251 -0.000000 -0.000000
RightUpLeg -47.399157 -33.970648 8.916315
RightLeg 79.514623 -0.000000 -0.000000
RightFoot -21.957906 -13.218174 30.019878
RightToeBase 4.536503 -0.000000 -0.000000
2269
root -1.658516 31.664766 -6.039836 5.670311 -19.584296 -7.326394
Spine 4.507910 -7.582382 -1.207891
Head 18.470569 -21.476739 5.318305
LeftShoulder -17.682522 17.837714 13.340752
LeftArm 8.388028 -28.529672 -78.377864
LeftForeArm 1.523872 -0.000000 104.144183
LeftHand -15.049260 -0.000000 24.506056
LeftHandThumb1 -26.253704 0.000000 33.147579
RightShoulder -12.234143 -3.992992 -8.159565
RightArm 8.035865 -29.486320 75.778520
RightForeArm -22.295697 -0.000000 17.386838
RightHand -13.209586 -0.000000 14.669235
RightHandThumb1 -24.326973 -0.000000 -32.862282
LeftUpLeg -10.951832 14.078686 -4.879833
LeftLeg 19.029157 -0.000000 -0.000000
LeftFoot -32.305912 32.346867 -20.908315
LeftToeBase 10.471440 -0.000000 -0.000000
RightUpLeg -47.799891 -34.555027 9.239738
RightLeg 79.628691 -0.000000 -0.000000
RightFoot -22.098236 -13.231296 30.247617
RightToeBase 4.403395 -0.000000 -0.000000
2270
root -1.626897 31.661379 -6.019239 5.656569 -20.035411 -7.358256
Spine 4.584379 -7.191165 -1.115045
Head 18.429266 -21.587552 5.280212
LeftShoulder -17.724474 17.942826 13.342524
LeftArm 8.272588 -28.592153 -78.434929
LeftForeArm 1.302478 -0.000000 104.150949
LeftHand -14.983439 -0.000000 24.521462
LeftHandThumb1 -26.253704 0.000000 33.147579
RightShoulder -12.080890 -3.859201 -8.243742
RightArm 8.321438 -28.974991 75.352406
RightForeArm -22.165811 -0.000000 17.050324
RightHand -13.434821 0.000000 14.906397
RightHandThumb1 -24.326973 -0.000000 -32.862282
LeftUpLeg -10.857341 14.272590 -4.949549
LeftLeg 18.940824 -0.000000 -0.000000
LeftFoot -32.455594 32.559118 -21.044833
LeftToeBase 10.524865 -0.000000 -0.000000
RightUpLeg -48.173120 -35.075718 9.524307
RightLeg 79.765757 -0.000000 -0.000000
RightFoot -22.125343 -13.231278 30.434802
RightToeBase 4.274351 -0.000000 -0.000000
2271
root -1.596335 31.657708 -5.989588 5.608724 -20.612912 -7.383471
Spine 4.673778 -6.684045 -1.045132
Head 18.432809 -21.738442 5.234939
LeftShoulder -17.801729 17.992232 13.330600
LeftArm 8.086603 -28.663716 -78.422598
LeftForeArm 1.182176 -0.000000 104.154072
LeftHand -14.920919 -0.000000 24.344848
LeftHandThumb1 -26.253704 0.000000 33.147579
RightShoulder -11.922822 -3.686694 -8.366803
RightArm 8.526604 -28.519815 75.016955
RightForeArm -22.426284 0.000000 16.698794
RightHand -13.530461 0.000000 14.693539
RightHandThumb1 -24.326973 -0.000000 -32.862282
LeftUpLeg -10.666449 14.488410 -5.015820
LeftLeg 18.778754 -0.000000 -0.000000
LeftFoot -32.560007 32.868173 -21.087289
LeftToeBase 10.546936 -0.000000 -0.000000
RightUpLeg -48.477008 -35.473063 9.738946
RightLeg 79.923057 -0.000000 -0.000000
RightFoot -22.176464 -13.198430 30.646407
RightToeBase 4.355969 -0.000000 -0.000000
2272
root -1.563111 31.655212 -5.966123 5.582452 -21.083325 -7.403632
Spine 4.762437 -6.296611 -0.969080
Head 18.412471 -21.842363 5.206095
LeftShoulder -17.906457 18.098571 13.293660
LeftArm 7.975257 -28.748134 -78.455738
LeftForeArm 0.978632 -0.000000 104.147997
LeftHand -14.837133 -0.000000 24.364548
LeftHandThumb1 -26.253704 0.000000 33.147579
RightShoulder -11.795636 -3.494576 -8.475378
RightArm 8.755350 -28.166135 74.626893
RightForeArm -22.369087 -0.000000 16.467745
RightHand -13.709117 -0.000000 14.354016
RightHandThumb1 -24.326973 -0.000000 -32.862282
LeftUpLeg -10.533444 14.564695 -5.081408
LeftLeg 18.661202 -0.000000 -0.000000
LeftFoot -32.669909 33.141336 -21.188080
LeftToeBase 10.582437 -0.000000 -0.000000
RightUpLeg -48.814980 -35.930262 9.965959
RightLeg 80.067547 -0.000000 -0.000000
RightFoot -22.058790 -13.327680 30.481705
RightToeBase 4.355263 -0.000000 -0.000000
2273
root -1.532804 31.652787 -5.949175 5.580143 -21.507149 -7.445404
Spine 4.846823 -5.945576 -0.881220
Head 18.373725 -21.959413 5.199328
LeftShoulder -18.022726 18.224918 13.233402
LeftArm 7.959341 -28.895393 -78.512505
LeftForeArm 0.836632 -0.000000 104.128542
LeftHand -14.832350 0.000000 24.318616
LeftHandThumb1 -26.253704 0.000000 33.147579
RightShoulder -11.663307 -3.281983 -8.594892
RightArm 8.914117 -27.582788 74.305616
RightForeArm -22.166765 0.000000 16.380864
RightHand -13.949842 -0.000000 14.228821
RightHandThumb1 -24.326973 -0.000000 -32.862282
LeftUpLeg -10.435247 14.588156 -5.132970
LeftLeg 18.526831 -0.000000 -0.000000
LeftFoot -32.543898 33.552803 -21.008542
LeftToeBase 10.566587 -0.000000 -0.000000
RightUpLeg -49.185456 -36.368262 10.209837
RightLeg 80.233096 -0.000000 -0.000000
RightFoot -22.112054 -13.326376 30.839489
RightToeBase 4.395989 -0.000000 -0.000000
2274
root -1.500013 31.648836 -5.923332 5.531590 -21.949031 -7.432238
Spine 4.937030 -5.593377 -0.842600
Head 18.358653 -22.039918 5.217405
LeftShoulder -18.125640 18.295511 13.190360
LeftArm 7.824227 -29.063266 -78.504483
LeftForeArm 0.630967 -0.000000 104.112052
LeftHand -14.841554 -0.000000 24.329938
LeftHandThumb1 -26.253704 0.000000 33.147579
RightShoulder -11.527018 -3.110796 -8.732969
RightArm 9.090162 -27.176771 73.995539
RightForeArm -22.375417 0.000000 16.314812
RightHand -14.114564 -0.000000 13.738225
RightHandThumb1 -24.326973 -0.000000 -32.862282
LeftUpLeg -10.267167 14.568487 -5.227002
LeftLeg 18.358063 -0.000000 -0.000000
LeftFoot -32.682719 33.899065 -21.145138
LeftToeBase 10.575882 -0.000000 -0.000000
RightUpLeg -49.450061 -36.750796 10.311603
RightLeg 80.394876 -0.000000 -0.000000
RightFoot -22.010799 -13.349798 30.758490
RightToeBase 3.936205 -0.000000 -0.000000
2275
root -1.467471 31.646824 -5.901588 5.531526 -22.405039 -7.467997
Spine 4.990401 -5.217321 -0.756107
Head 18.361201 -22.105644 5.239076
LeftShoulder -18.172765 18.400937 13.150159
LeftArm 7.651824 -29.277248 -78.497980
LeftForeArm 0.371989 0.000000 104.130214
LeftHand -14.783543 -0.000000 24.332772
LeftHandThumb1 -26.253704 0.000000 33.147579
RightShoulder -11.423720 -2.837481 -8.880697
RightArm 9.142416 -26.532506 73.743597
RightForeArm -22.247516 -0.000000 16.396597
RightHand -14.309572 -0.000000 13.577745
RightHandThumb1 -24.326973 -0.000000 -32.862282
LeftUpLeg -10.138274 14.519974 -5.288558
LeftLeg 18.197572 -0.000000 -0.000000
LeftFoot -33.203208 34.202479 -21.785137
LeftToeBase 10.663457 -0.000000 -0.000000
RightUpLeg -49.715376 -37.046196 10.444566
RightLeg 80.534304 -0.000000 -0.000000
RightFoot -22.050135 -13.231522 30.875976
RightToeBase 4.203677 -0.000000 -0.000000
2276
root -1.438080 31.643978 -5.876115 5.489413 -22.826369 -7.471043
Spine 5.073249 -4.871807 -0.715771
Head 18.360272 -22.206369 5.277674
LeftShoulder -18.258020 18.522531 13.097106
LeftArm 7.553170 -29.521108 -78.526635
LeftForeArm 0.181377 -0.000000 104.120860
LeftHand -14.776522 -0.000000 24.322903
LeftHandThumb1 -26.253704 0.000000 33.147579
RightShoulder -11.377957 -2.700026 -8.987376
RightArm 9.365251 -26.058576 73.399346
RightForeArm -22.205825 0.000000 16.548121
RightHand -14.457553 -0.000000 13.412352
RightHandThumb1 -24.326973 -0.000000 -32.862282
LeftUpLeg -9.983460 14.537649 -5.359808
LeftLeg 18.056152 -0.000000 -0.000000
LeftFoot -33.363595 34.497552 -21.984156
LeftToeBase 10.636510 -0.000000 -0.000000
RightUpLeg -49.923328 -37.373140 10.519096
RightLeg 80.662361 -0.000000 -0.000000
RightFoot -22.055702 -13.252048 30.798467
RightToeBase 4.126851 -0.000000 -0.000000
2277
root -1.410362 31.644522 -5.856464 5.528944 -23.249007 -7.533391
Spine 5.103904 -4.550498 -0.615468
Head 18.356968 -22.253656 5.307755
LeftShoulder -18.367062 18.614031 13.017763
LeftArm 7.407855 -29.766666 -78.506685
LeftForeArm -0.021353 0.000000 104.122238
LeftHand -14.793406 0.000000 24.407330
LeftHandThumb1 -26.253704 0.000000 33.147579
RightShoulder -11.325036 -2.563430 -9.097672
RightArm 9.588032 -25.609240 73.071908
RightForeArm -22.192540 -0.000000 16.756599
RightHand -14.602041 -0.000000 13.023771
RightHandThumb1 -24.326973 -0.000000 -32.862282
LeftUpLeg -9.907656 14.568701 -5.383509
LeftLeg 17.934195 -0.000000 -0.000000
LeftFoot -33.484967 34.752887 -22.127321
LeftToeBase 10.700101 -0.000000 -0.000000
RightUpLeg -50.125143 -37.570273 10.595082
RightLeg 80.747749 -0.000000 -0.000000
RightFoot -21.922857 -13.217295 30.576384
RightToeBase 4.040067 -0.000000 -0.000000
